<svg width="21" height="22" viewBox="0 0 21 22" fill="none" xmlns="http://www.w3.org/2000/svg">
<path d="M13.7509 3.06641L14.8968 5.0645H18.3345C19.6003 5.0645 20.6263 6.05843 20.6263 7.28469V15.9434C20.6263 17.1697 19.6003 18.1636 18.3345 18.1636H2.29181C1.02599 18.1636 0 17.1697 0 15.9434V7.28469C0 6.05843 1.02599 5.0645 2.29181 5.0645H5.72952L6.87543 3.06641H13.7509ZM6.4584 8.00871L6.11981 8.06647L4.52406 8.33935C4.33702 8.37126 4.21216 8.54409 4.24525 8.72498C4.27819 8.90617 4.45644 9.02712 4.64332 8.99522L5.66293 8.82115C5.32194 9.55445 5.1656 10.134 5.15664 10.9478C5.15664 13.7066 7.46539 15.9432 10.3132 15.9432C11.5015 15.8852 12.6033 15.5796 13.5399 14.8375L13.186 14.5355C12.975 14.6736 12.7777 14.8341 12.5526 14.9499C11.8594 15.3063 11.0972 15.4964 10.3132 15.4992C7.71846 15.4992 5.61499 13.4616 5.61499 10.9478C5.6671 10.3604 5.69908 9.74339 5.9782 9.20571L6.12239 9.99848C6.15549 10.1797 6.33374 10.3006 6.52078 10.2687C6.70782 10.2368 6.83267 10.064 6.79958 9.88279L6.51822 8.33674L6.4584 8.00871ZM10.3132 5.95238C9.24802 6.00457 8.20153 6.23439 7.34595 6.88839L7.69988 7.19038C8.49072 6.67311 9.35113 6.395 10.3132 6.39654C12.9079 6.39654 15.0114 8.43416 15.0114 10.9479C14.9666 11.483 14.9453 12.0514 14.7081 12.5483L14.5478 11.6671C14.5147 11.4861 14.3364 11.3651 14.1495 11.3972C13.9627 11.4291 13.8376 11.6018 13.8707 11.7828L14.1521 13.3289L14.2117 13.6569L14.5502 13.5991L16.1462 13.3265C16.3333 13.2945 16.4581 13.1218 16.4252 12.9406C16.3921 12.7594 16.2139 12.6386 16.0268 12.6704L15.0575 12.8361C15.3036 12.2299 15.5035 11.6096 15.4697 10.9479C15.4697 8.18908 13.1609 5.95248 10.3131 5.95248L10.3132 5.95238Z" fill="#AE2626"/>
<mask id="path-2-inside-1_1220_51" fill="white">
<path d="M13.7509 3.06641L14.8968 5.0645H18.3345C19.6003 5.0645 20.6263 6.05843 20.6263 7.28469V15.9434C20.6263 17.1697 19.6003 18.1636 18.3345 18.1636H2.29181C1.02599 18.1636 0 17.1697 0 15.9434V7.28469C0 6.05843 1.02599 5.0645 2.29181 5.0645H5.72952L6.87543 3.06641H13.7509ZM13.4812 3.51041H7.14513L6.13015 5.2801C6.04942 5.42103 5.89595 5.50853 5.72953 5.50853H2.29181C1.27924 5.50853 0.458325 6.30379 0.458325 7.28472V15.9435C0.458325 16.9244 1.27924 17.7197 2.29181 17.7197H18.3345C19.3471 17.7197 20.168 16.9244 20.168 15.9435V7.28472C20.168 6.30379 19.3471 5.50853 18.3345 5.50853H14.8968C14.7303 5.50853 14.5769 5.42103 14.4961 5.2801L13.4812 3.51041ZM6.37861 7.57137C6.628 7.52894 6.8657 7.69016 6.90969 7.93175L6.96932 8.2596L7.25068 9.80565C7.32773 10.2283 7.03646 10.6316 6.60005 10.7059C6.43363 10.7254 6.24739 10.7271 6.10273 10.6291C6.08946 10.775 6.09617 10.7003 6.08307 10.853C6.07555 10.9399 6.07875 10.9043 6.07395 10.9596C6.11488 13.2773 7.98369 14.9412 10.3113 15.055C11.0159 15.0526 11.7055 14.8825 12.3375 14.5574C12.4371 14.5062 12.5191 14.4527 12.7082 14.3194C12.7082 14.3192 12.7082 14.3192 12.7084 14.3192C12.8156 14.2435 12.8647 14.2096 12.9293 14.1673C13.1023 14.0541 13.3321 14.0687 13.4886 14.2023L13.8426 14.504C14.0547 14.6852 14.0487 15.0075 13.8298 15.1809C12.869 15.9423 11.7132 16.3192 10.3361 16.3864L10.313 16.3872C7.21193 16.3872 4.69802 13.9517 4.69802 10.943C4.7065 10.4195 4.76677 9.89047 4.94661 9.39398L4.7228 9.43223C4.28637 9.50703 3.87041 9.22455 3.79335 8.80193C3.71661 8.37946 4.00789 7.9765 4.44398 7.90184L6.04006 7.62912L6.37861 7.57137ZM6.45822 8.00871L6.11963 8.06647L4.52387 8.33935C4.33683 8.37126 4.21198 8.54409 4.24507 8.72498C4.278 8.90617 4.45625 9.02712 4.64313 8.99522L5.66274 8.821C5.32175 9.55445 5.16542 10.134 5.15646 10.9478C5.15646 13.7066 7.46521 15.9432 10.313 15.9432C11.5013 15.8852 12.6031 15.5796 13.5397 14.8375L13.1858 14.5355C12.9748 14.6736 12.7775 14.8341 12.5524 14.9499C11.8592 15.3063 11.097 15.4964 10.313 15.4992C7.71827 15.4992 5.6148 13.4616 5.6148 10.9478C5.66692 10.3604 5.69889 9.7434 5.97801 9.20571L6.12221 9.99848C6.1553 10.1797 6.33355 10.3006 6.52059 10.2687C6.70763 10.2368 6.83249 10.064 6.79939 9.88279L6.51803 8.33675L6.45822 8.00871ZM10.313 5.50838C13.414 5.50838 15.9279 7.94369 15.9271 10.9256C15.9463 11.3808 15.8847 11.8327 15.7417 12.268L15.9471 12.233C16.3834 12.1585 16.7993 12.4406 16.8761 12.8633C16.9531 13.286 16.6618 13.6889 16.2254 13.7636L14.6297 14.036L14.2909 14.0939C14.0419 14.1365 13.804 13.9751 13.76 13.7338L13.7004 13.4057L13.419 11.8595C13.3421 11.437 13.6334 11.034 14.0696 10.9594C14.2277 10.9468 14.4017 10.9241 14.5454 11.0216C14.5497 10.9663 14.5475 10.9945 14.552 10.9368C14.5112 8.61762 12.6411 6.9543 10.3121 6.84052C9.46385 6.83912 8.69061 7.07778 7.95588 7.55831C7.78275 7.67152 7.55302 7.65712 7.39619 7.52347L7.04257 7.22147C6.82787 7.03826 6.83699 6.7115 7.06159 6.53991C7.92372 5.88064 8.98397 5.57274 10.2896 5.50879L10.2899 5.5122L10.313 5.50838ZM10.313 5.95238C9.24784 6.00457 8.20134 6.23439 7.34576 6.88839L7.6997 7.19038C8.49054 6.67311 9.35095 6.395 10.313 6.39654C12.9077 6.39654 15.0112 8.43416 15.0112 10.9479C14.9664 11.483 14.9452 12.0514 14.7079 12.5483L14.5476 11.6671C14.5145 11.4861 14.3362 11.3651 14.1494 11.3972C13.9625 11.4291 13.8375 11.6018 13.8706 11.7828L14.1519 13.3289L14.2115 13.6569L14.55 13.5991L16.1461 13.3265C16.3331 13.2945 16.4579 13.1218 16.425 12.9406C16.3919 12.7594 16.2137 12.6386 16.0266 12.6704L15.0574 12.8361C15.3034 12.2299 15.5034 11.6096 15.4695 10.9479C15.4695 8.18908 13.1607 5.95248 10.3129 5.95248L10.313 5.95238Z"/>
</mask>
<path d="M13.7509 3.06641L14.8968 5.0645H18.3345C19.6003 5.0645 20.6263 6.05843 20.6263 7.28469V15.9434C20.6263 17.1697 19.6003 18.1636 18.3345 18.1636H2.29181C1.02599 18.1636 0 17.1697 0 15.9434V7.28469C0 6.05843 1.02599 5.0645 2.29181 5.0645H5.72952L6.87543 3.06641H13.7509ZM13.4812 3.51041H7.14513L6.13015 5.2801C6.04942 5.42103 5.89595 5.50853 5.72953 5.50853H2.29181C1.27924 5.50853 0.458325 6.30379 0.458325 7.28472V15.9435C0.458325 16.9244 1.27924 17.7197 2.29181 17.7197H18.3345C19.3471 17.7197 20.168 16.9244 20.168 15.9435V7.28472C20.168 6.30379 19.3471 5.50853 18.3345 5.50853H14.8968C14.7303 5.50853 14.5769 5.42103 14.4961 5.2801L13.4812 3.51041ZM6.37861 7.57137C6.628 7.52894 6.8657 7.69016 6.90969 7.93175L6.96932 8.2596L7.25068 9.80565C7.32773 10.2283 7.03646 10.6316 6.60005 10.7059C6.43363 10.7254 6.24739 10.7271 6.10273 10.6291C6.08946 10.775 6.09617 10.7003 6.08307 10.853C6.07555 10.9399 6.07875 10.9043 6.07395 10.9596C6.11488 13.2773 7.98369 14.9412 10.3113 15.055C11.0159 15.0526 11.7055 14.8825 12.3375 14.5574C12.4371 14.5062 12.5191 14.4527 12.7082 14.3194C12.7082 14.3192 12.7082 14.3192 12.7084 14.3192C12.8156 14.2435 12.8647 14.2096 12.9293 14.1673C13.1023 14.0541 13.3321 14.0687 13.4886 14.2023L13.8426 14.504C14.0547 14.6852 14.0487 15.0075 13.8298 15.1809C12.869 15.9423 11.7132 16.3192 10.3361 16.3864L10.313 16.3872C7.21193 16.3872 4.69802 13.9517 4.69802 10.943C4.7065 10.4195 4.76677 9.89047 4.94661 9.39398L4.7228 9.43223C4.28637 9.50703 3.87041 9.22455 3.79335 8.80193C3.71661 8.37946 4.00789 7.9765 4.44398 7.90184L6.04006 7.62912L6.37861 7.57137ZM6.45822 8.00871L6.11963 8.06647L4.52387 8.33935C4.33683 8.37126 4.21198 8.54409 4.24507 8.72498C4.278 8.90617 4.45625 9.02712 4.64313 8.99522L5.66274 8.821C5.32175 9.55445 5.16542 10.134 5.15646 10.9478C5.15646 13.7066 7.46521 15.9432 10.313 15.9432C11.5013 15.8852 12.6031 15.5796 13.5397 14.8375L13.1858 14.5355C12.9748 14.6736 12.7775 14.8341 12.5524 14.9499C11.8592 15.3063 11.097 15.4964 10.313 15.4992C7.71827 15.4992 5.6148 13.4616 5.6148 10.9478C5.66692 10.3604 5.69889 9.7434 5.97801 9.20571L6.12221 9.99848C6.1553 10.1797 6.33355 10.3006 6.52059 10.2687C6.70763 10.2368 6.83249 10.064 6.79939 9.88279L6.51803 8.33675L6.45822 8.00871ZM10.313 5.50838C13.414 5.50838 15.9279 7.94369 15.9271 10.9256C15.9463 11.3808 15.8847 11.8327 15.7417 12.268L15.9471 12.233C16.3834 12.1585 16.7993 12.4406 16.8761 12.8633C16.9531 13.286 16.6618 13.6889 16.2254 13.7636L14.6297 14.036L14.2909 14.0939C14.0419 14.1365 13.804 13.9751 13.76 13.7338L13.7004 13.4057L13.419 11.8595C13.3421 11.437 13.6334 11.034 14.0696 10.9594C14.2277 10.9468 14.4017 10.9241 14.5454 11.0216C14.5497 10.9663 14.5475 10.9945 14.552 10.9368C14.5112 8.61762 12.6411 6.9543 10.3121 6.84052C9.46385 6.83912 8.69061 7.07778 7.95588 7.55831C7.78275 7.67152 7.55302 7.65712 7.39619 7.52347L7.04257 7.22147C6.82787 7.03826 6.83699 6.7115 7.06159 6.53991C7.92372 5.88064 8.98397 5.57274 10.2896 5.50879L10.2899 5.5122L10.313 5.50838ZM10.313 5.95238C9.24784 6.00457 8.20134 6.23439 7.34576 6.88839L7.6997 7.19038C8.49054 6.67311 9.35095 6.395 10.313 6.39654C12.9077 6.39654 15.0112 8.43416 15.0112 10.9479C14.9664 11.483 14.9452 12.0514 14.7079 12.5483L14.5476 11.6671C14.5145 11.4861 14.3362 11.3651 14.1494 11.3972C13.9625 11.4291 13.8375 11.6018 13.8706 11.7828L14.1519 13.3289L14.2115 13.6569L14.55 13.5991L16.1461 13.3265C16.3331 13.2945 16.4579 13.1218 16.425 12.9406C16.3919 12.7594 16.2137 12.6386 16.0266 12.6704L15.0574 12.8361C15.3034 12.2299 15.5034 11.6096 15.4695 10.9479C15.4695 8.18908 13.1607 5.95248 10.3129 5.95248L10.313 5.95238Z" fill="#AE2626" stroke="white" stroke-width="2" mask="url(#path-2-inside-1_1220_51)"/>
<rect x="17.1575" y="0.297189" width="1.99415" height="25.3767" rx="0.997077" transform="rotate(38.6813 17.1575 0.297189)" fill="#AE2626" stroke="white"/>
</svg>
