<svg width="21" height="16" viewBox="0 0 21 16" fill="none" xmlns="http://www.w3.org/2000/svg">
<path d="M13.7509 0L14.8968 1.99809H18.3345C19.6003 1.99809 20.6263 2.99202 20.6263 4.21828V12.877C20.6263 14.1033 19.6003 15.0972 18.3345 15.0972H2.29181C1.02599 15.0972 0 14.1033 0 12.877V4.21828C0 2.99202 1.02599 1.99809 2.29181 1.99809H5.72952L6.87543 0H13.7509ZM6.4584 4.9423L6.11981 5.00007L4.52406 5.27295C4.33702 5.30485 4.21216 5.47768 4.24525 5.65857C4.27819 5.83976 4.45644 5.96072 4.64332 5.92881L5.66293 5.75474C5.32194 6.48804 5.1656 7.06755 5.15664 7.88141C5.15664 10.6402 7.46539 12.8768 10.3132 12.8768C11.5015 12.8188 12.6033 12.5132 13.5399 11.7711L13.186 11.4691C12.975 11.6072 12.7777 11.7677 12.5526 11.8835C11.8594 12.2398 11.0972 12.43 10.3132 12.4328C7.71846 12.4328 5.61499 10.3952 5.61499 7.8814C5.6671 7.294 5.69908 6.67699 5.9782 6.1393L6.12239 6.93207C6.15549 7.11327 6.33374 7.23422 6.52078 7.20232C6.70782 7.17041 6.83267 6.99758 6.79958 6.81638L6.51822 5.27034L6.4584 4.9423ZM10.3132 2.88597C9.24802 2.93816 8.20153 3.16799 7.34595 3.82198L7.69988 4.12397C8.49072 3.60671 9.35113 3.32859 10.3132 3.33014C12.9079 3.33014 15.0114 5.36776 15.0114 7.88153C14.9666 8.41659 14.9453 8.98496 14.7081 9.48193L14.5478 8.60071C14.5147 8.41967 14.3364 8.29872 14.1495 8.33078C13.9627 8.36268 13.8376 8.53536 13.8707 8.7164L14.1521 10.2624L14.2117 10.5905L14.5502 10.5327L16.1462 10.2601C16.3333 10.2281 16.4581 10.0554 16.4252 9.87419C16.3921 9.69299 16.2139 9.5722 16.0268 9.60394L15.0575 9.76965C15.3036 9.1635 15.5035 8.54324 15.4697 7.8815C15.4697 5.12267 13.1609 2.88607 10.3131 2.88607L10.3132 2.88597Z" fill="#AE2626"/>
<mask id="path-2-inside-1_1220_48" fill="white">
<path d="M13.7509 0L14.8968 1.99809H18.3345C19.6003 1.99809 20.6263 2.99202 20.6263 4.21828V12.877C20.6263 14.1033 19.6003 15.0972 18.3345 15.0972H2.29181C1.02599 15.0972 0 14.1033 0 12.877V4.21828C0 2.99202 1.02599 1.99809 2.29181 1.99809H5.72952L6.87543 0H13.7509ZM13.4812 0.443999H7.14513L6.13015 2.21369C6.04942 2.35462 5.89595 2.44212 5.72953 2.44212H2.29181C1.27924 2.44212 0.458325 3.23738 0.458325 4.21831V12.8771C0.458325 13.858 1.27924 14.6532 2.29181 14.6532H18.3345C19.3471 14.6532 20.168 13.858 20.168 12.8771V4.21831C20.168 3.23738 19.3471 2.44212 18.3345 2.44212H14.8968C14.7303 2.44212 14.5769 2.35462 14.4961 2.21369L13.4812 0.443999ZM6.37861 4.50497C6.628 4.46253 6.8657 4.62375 6.90969 4.86534L6.96932 5.1932L7.25068 6.73924C7.32773 7.16187 7.03646 7.56515 6.60005 7.63949C6.43363 7.659 6.24739 7.66071 6.10273 7.56268C6.08946 7.70856 6.09617 7.63392 6.08307 7.78662C6.07555 7.8735 6.07875 7.83788 6.07395 7.89316C6.11488 10.2109 7.98369 11.8748 10.3113 11.9886C11.0159 11.9861 11.7055 11.8161 12.3375 11.491C12.4371 11.4398 12.5191 11.3863 12.7082 11.253C12.7082 11.2528 12.7082 11.2528 12.7084 11.2528C12.8156 11.1771 12.8647 11.1432 12.9293 11.1009C13.1023 10.9877 13.3321 11.0023 13.4886 11.1359L13.8426 11.4376C14.0547 11.6188 14.0487 11.9411 13.8298 12.1145C12.869 12.8758 11.7132 13.2528 10.3361 13.32L10.313 13.3208C7.21193 13.3208 4.69802 10.8853 4.69802 7.87655C4.7065 7.3531 4.76677 6.82406 4.94661 6.32757L4.7228 6.36582C4.28637 6.44062 3.87041 6.15814 3.79335 5.73553C3.71661 5.31306 4.00789 4.91009 4.44398 4.83544L6.04006 4.56271L6.37861 4.50497ZM6.45822 4.9423L6.11963 5.00007L4.52387 5.27295C4.33683 5.30485 4.21198 5.47768 4.24507 5.65857C4.278 5.83976 4.45625 5.96072 4.64313 5.92881L5.66274 5.75459C5.32175 6.48804 5.16542 7.06755 5.15646 7.88141C5.15646 10.6402 7.46521 12.8768 10.313 12.8768C11.5013 12.8188 12.6031 12.5132 13.5397 11.7711L13.1858 11.4691C12.9748 11.6072 12.7775 11.7677 12.5524 11.8835C11.8592 12.2398 11.097 12.43 10.313 12.4328C7.71827 12.4328 5.6148 10.3952 5.6148 7.88141C5.66692 7.29401 5.69889 6.67699 5.97801 6.13931L6.12221 6.93208C6.1553 7.11327 6.33355 7.23422 6.52059 7.20232C6.70763 7.17042 6.83249 6.99758 6.79939 6.81639L6.51803 5.27034L6.45822 4.9423ZM10.313 2.44197C13.414 2.44197 15.9279 4.87728 15.9271 7.85924C15.9463 8.31438 15.8847 8.76631 15.7417 9.20162L15.9471 9.16662C16.3834 9.09213 16.7993 9.37415 16.8761 9.79692C16.9531 10.2195 16.6618 10.6225 16.2254 10.6972L14.6297 10.9696L14.2909 11.0275C14.0419 11.0701 13.804 10.9087 13.76 10.6674L13.7004 10.3393L13.419 8.79306C13.3421 8.37059 13.6334 7.96763 14.0696 7.89297C14.2277 7.88043 14.4017 7.85766 14.5454 7.95523C14.5497 7.89994 14.5475 7.92813 14.552 7.87036C14.5112 5.55121 12.6411 3.88789 10.3121 3.77411C9.46385 3.77272 8.69061 4.01137 7.95588 4.49191C7.78275 4.60512 7.55302 4.59071 7.39619 4.45706L7.04257 4.15507C6.82787 3.97186 6.83699 3.6451 7.06159 3.47351C7.92372 2.81423 8.98397 2.50634 10.2896 2.44239L10.2899 2.44579L10.313 2.44197ZM10.313 2.88597C9.24784 2.93816 8.20134 3.16799 7.34576 3.82198L7.6997 4.12397C8.49054 3.60671 9.35095 3.32859 10.313 3.33014C12.9077 3.33014 15.0112 5.36776 15.0112 7.88153C14.9664 8.41659 14.9452 8.98496 14.7079 9.48193L14.5476 8.60071C14.5145 8.41967 14.3362 8.29872 14.1494 8.33078C13.9625 8.36268 13.8375 8.53536 13.8706 8.7164L14.1519 10.2624L14.2115 10.5905L14.55 10.5327L16.1461 10.2601C16.3331 10.2281 16.4579 10.0554 16.425 9.87419C16.3919 9.69299 16.2137 9.5722 16.0266 9.60394L15.0574 9.76965C15.3034 9.1635 15.5034 8.54324 15.4695 7.8815C15.4695 5.12267 13.1607 2.88607 10.3129 2.88607L10.313 2.88597Z"/>
</mask>
<path d="M13.7509 0L14.8968 1.99809H18.3345C19.6003 1.99809 20.6263 2.99202 20.6263 4.21828V12.877C20.6263 14.1033 19.6003 15.0972 18.3345 15.0972H2.29181C1.02599 15.0972 0 14.1033 0 12.877V4.21828C0 2.99202 1.02599 1.99809 2.29181 1.99809H5.72952L6.87543 0H13.7509ZM13.4812 0.443999H7.14513L6.13015 2.21369C6.04942 2.35462 5.89595 2.44212 5.72953 2.44212H2.29181C1.27924 2.44212 0.458325 3.23738 0.458325 4.21831V12.8771C0.458325 13.858 1.27924 14.6532 2.29181 14.6532H18.3345C19.3471 14.6532 20.168 13.858 20.168 12.8771V4.21831C20.168 3.23738 19.3471 2.44212 18.3345 2.44212H14.8968C14.7303 2.44212 14.5769 2.35462 14.4961 2.21369L13.4812 0.443999ZM6.37861 4.50497C6.628 4.46253 6.8657 4.62375 6.90969 4.86534L6.96932 5.1932L7.25068 6.73924C7.32773 7.16187 7.03646 7.56515 6.60005 7.63949C6.43363 7.659 6.24739 7.66071 6.10273 7.56268C6.08946 7.70856 6.09617 7.63392 6.08307 7.78662C6.07555 7.8735 6.07875 7.83788 6.07395 7.89316C6.11488 10.2109 7.98369 11.8748 10.3113 11.9886C11.0159 11.9861 11.7055 11.8161 12.3375 11.491C12.4371 11.4398 12.5191 11.3863 12.7082 11.253C12.7082 11.2528 12.7082 11.2528 12.7084 11.2528C12.8156 11.1771 12.8647 11.1432 12.9293 11.1009C13.1023 10.9877 13.3321 11.0023 13.4886 11.1359L13.8426 11.4376C14.0547 11.6188 14.0487 11.9411 13.8298 12.1145C12.869 12.8758 11.7132 13.2528 10.3361 13.32L10.313 13.3208C7.21193 13.3208 4.69802 10.8853 4.69802 7.87655C4.7065 7.3531 4.76677 6.82406 4.94661 6.32757L4.7228 6.36582C4.28637 6.44062 3.87041 6.15814 3.79335 5.73553C3.71661 5.31306 4.00789 4.91009 4.44398 4.83544L6.04006 4.56271L6.37861 4.50497ZM6.45822 4.9423L6.11963 5.00007L4.52387 5.27295C4.33683 5.30485 4.21198 5.47768 4.24507 5.65857C4.278 5.83976 4.45625 5.96072 4.64313 5.92881L5.66274 5.75459C5.32175 6.48804 5.16542 7.06755 5.15646 7.88141C5.15646 10.6402 7.46521 12.8768 10.313 12.8768C11.5013 12.8188 12.6031 12.5132 13.5397 11.7711L13.1858 11.4691C12.9748 11.6072 12.7775 11.7677 12.5524 11.8835C11.8592 12.2398 11.097 12.43 10.313 12.4328C7.71827 12.4328 5.6148 10.3952 5.6148 7.88141C5.66692 7.29401 5.69889 6.67699 5.97801 6.13931L6.12221 6.93208C6.1553 7.11327 6.33355 7.23422 6.52059 7.20232C6.70763 7.17042 6.83249 6.99758 6.79939 6.81639L6.51803 5.27034L6.45822 4.9423ZM10.313 2.44197C13.414 2.44197 15.9279 4.87728 15.9271 7.85924C15.9463 8.31438 15.8847 8.76631 15.7417 9.20162L15.9471 9.16662C16.3834 9.09213 16.7993 9.37415 16.8761 9.79692C16.9531 10.2195 16.6618 10.6225 16.2254 10.6972L14.6297 10.9696L14.2909 11.0275C14.0419 11.0701 13.804 10.9087 13.76 10.6674L13.7004 10.3393L13.419 8.79306C13.3421 8.37059 13.6334 7.96763 14.0696 7.89297C14.2277 7.88043 14.4017 7.85766 14.5454 7.95523C14.5497 7.89994 14.5475 7.92813 14.552 7.87036C14.5112 5.55121 12.6411 3.88789 10.3121 3.77411C9.46385 3.77272 8.69061 4.01137 7.95588 4.49191C7.78275 4.60512 7.55302 4.59071 7.39619 4.45706L7.04257 4.15507C6.82787 3.97186 6.83699 3.6451 7.06159 3.47351C7.92372 2.81423 8.98397 2.50634 10.2896 2.44239L10.2899 2.44579L10.313 2.44197ZM10.313 2.88597C9.24784 2.93816 8.20134 3.16799 7.34576 3.82198L7.6997 4.12397C8.49054 3.60671 9.35095 3.32859 10.313 3.33014C12.9077 3.33014 15.0112 5.36776 15.0112 7.88153C14.9664 8.41659 14.9452 8.98496 14.7079 9.48193L14.5476 8.60071C14.5145 8.41967 14.3362 8.29872 14.1494 8.33078C13.9625 8.36268 13.8375 8.53536 13.8706 8.7164L14.1519 10.2624L14.2115 10.5905L14.55 10.5327L16.1461 10.2601C16.3331 10.2281 16.4579 10.0554 16.425 9.87419C16.3919 9.69299 16.2137 9.5722 16.0266 9.60394L15.0574 9.76965C15.3034 9.1635 15.5034 8.54324 15.4695 7.8815C15.4695 5.12267 13.1607 2.88607 10.3129 2.88607L10.313 2.88597Z" fill="#AE2626" stroke="white" stroke-width="2" mask="url(#path-2-inside-1_1220_48)"/>
</svg>
