<svg width="21" height="24" viewBox="0 0 21 24" fill="none" xmlns="http://www.w3.org/2000/svg">
<path d="M6.69043 4.41323L4.99447 8.57201C4.40404 8.51449 3.82618 8.35806 3.2823 8.10842C1.5903 7.33881 0.571099 5.85048 1.17538 4.3705C1.77967 2.89072 3.50385 2.66955 5.20396 3.41787V3.41806C5.74567 3.66562 6.24743 4.00144 6.69038 4.41322L6.69043 4.41323Z" fill="#AE2626"/>
<path d="M8.66903 5.90457L7.38385 9.06407L6.01018 8.54542L5.90137 8.5029L7.26712 5.15625L7.36784 5.20732L8.66903 5.90457Z" fill="#AE2626"/>
<path d="M8.66903 5.90457L7.38385 9.06407L6.01018 8.54542L5.90137 8.5029L7.26712 5.15625L7.36784 5.20732L8.66903 5.90457Z" fill="#AE2626"/>
<path d="M14.3689 8.95533L13.3979 11.3408L10.4008 10.2056L9.61913 9.91214L8.14062 9.35515L9.38948 6.28906L14.3689 8.95533Z" fill="#AE2626"/>
<path d="M17.1251 10.4285L16.8431 11.1217L16.525 11.8998L16.3034 12.4357L14.1602 11.6234L15.0907 9.33984L17.1251 10.4285Z" fill="#AE2626"/>
<path d="M20.8754 16.2987V18.2973C20.8754 18.5321 20.695 18.7225 20.4725 18.7225C20.25 18.7225 20.0696 18.5321 20.0696 18.2973V16.2987C20.0678 15.4894 19.845 14.6979 19.4276 14.0191C19.0104 13.3402 18.4163 12.8028 17.7169 12.4715L17.2617 12.2547L17.5759 11.4766L18.0431 11.6977L18.0433 11.6975C18.8848 12.0954 19.5997 12.7411 20.102 13.5572C20.6043 14.3735 20.8728 15.3254 20.8754 16.2987H20.8754Z" fill="#AE2626"/>
<path d="M11 13.3944V24H8V13.3944H9.125V11L9.875 11.2895V13.3944L11 13.3944Z" fill="#AE2626"/>
<rect x="17.97" y="0.297189" width="2" height="27.6049" rx="1" transform="rotate(38.6813 17.97 0.297189)" fill="#AE2626" stroke="white"/>
</svg>
