<svg width="21" height="23" viewBox="0 0 21 23" fill="none" xmlns="http://www.w3.org/2000/svg">
<path d="M5.86816 2.34682L4.1722 6.5056C3.58178 6.44808 3.00392 6.29166 2.46004 6.04201C0.768039 5.27241 -0.251167 3.78407 0.353119 2.3041C0.957404 0.824318 2.68159 0.603146 4.38169 1.35147V1.35166C4.92341 1.59921 5.42516 1.93504 5.86812 2.34681L5.86816 2.34682Z" fill="#AE2626"/>
<path d="M7.84677 3.83817L6.56158 6.99766L5.18791 6.47902L5.0791 6.43649L6.44486 3.08984L6.54557 3.14091L7.84677 3.83817Z" fill="#AE2626"/>
<path d="M7.84677 3.83817L6.56158 6.99766L5.18791 6.47902L5.0791 6.43649L6.44486 3.08984L6.54557 3.14091L7.84677 3.83817Z" fill="#AE2626"/>
<path d="M13.5467 6.88893L12.5757 9.27444L9.5785 8.13923L8.79687 7.84573L7.31836 7.28874L8.56722 4.22266L13.5467 6.88893Z" fill="#AE2626"/>
<path d="M16.3029 8.36214L16.0209 9.05526L15.7027 9.83342L15.4811 10.3693L13.3379 9.55699L14.2684 7.27344L16.3029 8.36214Z" fill="#AE2626"/>
<path d="M20.0531 14.2323V16.2309C20.0531 16.4657 19.8727 16.6561 19.6502 16.6561C19.4278 16.6561 19.2474 16.4657 19.2474 16.2309V14.2323C19.2456 13.423 19.0227 12.6315 18.6053 11.9527C18.1881 11.2738 17.5941 10.7364 16.8946 10.4051L16.4395 10.1883L16.7536 9.41016L17.2209 9.63132L17.221 9.63113C18.0625 10.029 18.7775 10.6747 19.2798 11.4908C19.7821 12.3071 20.0506 13.259 20.0531 14.2323H20.0531Z" fill="#AE2626"/>
<path d="M10.7873 11.2345V22.2906H7.56445V11.2345H8.77302V8.73828L9.57874 9.04012V11.2344L10.7873 11.2345Z" fill="#AE2626"/>
</svg>
