<svg width="18" height="20" viewBox="0 0 18 20" fill="none" xmlns="http://www.w3.org/2000/svg">
<path d="M11.1148 12.5776L11.1956 12.4564C11.4785 12.0118 11.9231 11.7087 12.4485 11.6278C11.9231 10.4152 10.9126 9.44523 9.67991 8.98047C8.83115 9.80906 7.67922 10.3344 6.42632 10.3344C5.17342 10.3344 4.04177 9.82923 3.19286 8.98047C1.31353 9.70798 0 11.5066 0 13.6285V15.3664C0 15.6493 0.242461 15.8918 0.525389 15.8918H8.4876V14.4974C8.4876 13.4465 9.3565 12.5776 10.4074 12.5776L11.1148 12.5776Z" fill="#AE2626"/>
<path d="M2.64749 5.22248C2.64749 7.46564 4.34498 9.30463 6.42651 9.30463C8.50804 9.30463 10.2055 7.46561 10.2055 5.22248C10.2055 5.00018 10.2055 4.79803 10.1854 4.57573C10.7917 2.79733 10.4884 -0.436018 9.33661 0.0489895C8.32618 0.49358 2.82942 -0.92099 3.15276 1.40297C1.8594 1.44343 2.52632 3.98968 2.66771 4.55549C2.66771 4.77793 2.64755 5.00022 2.64755 5.22252L2.64749 5.22248ZM3.79931 5.34371C3.94084 5.34371 4.06207 5.24264 4.04177 5.10125C3.961 4.49495 3.85993 2.95917 4.3853 3.10056C5.05219 3.2824 5.77973 3.46424 6.42634 3.46424C7.07309 3.46424 7.80046 3.2621 8.46738 3.10056C8.99277 2.95903 8.89183 4.49499 8.81091 5.10125C8.79075 5.24278 8.91198 5.36401 9.05337 5.34371L9.27567 5.32355C9.23521 7.02105 7.96218 8.37503 6.42621 8.37503C4.89039 8.37503 3.63738 7.02105 3.57676 5.32355L3.79931 5.34371Z" fill="#AE2626"/>
<path d="M17.0156 13.6105H16.0253C15.8434 13.6105 15.6818 13.5297 15.6008 13.368L15.3785 13.0043C15.237 12.7618 14.9744 12.6406 14.6915 12.6406H12.7514C12.4685 12.6406 12.226 12.7822 12.0643 13.0246L11.842 13.3883C11.7409 13.5298 11.5793 13.6308 11.4176 13.6308H10.4273C9.94226 13.6308 9.53809 14.0349 9.53809 14.52V18.3394C9.53809 18.8245 9.94222 19.2286 10.4273 19.2286H17.0153C17.5004 19.2286 17.9045 18.8245 17.9045 18.3394L17.9047 14.4998C17.9047 14.0147 17.5005 13.6106 17.0156 13.6106L17.0156 13.6105ZM13.7013 18.2786C12.5898 18.2786 11.6805 17.3693 11.6805 16.2578C11.6805 15.1463 12.5898 14.2369 13.7013 14.2369C14.8128 14.2369 15.7222 15.1463 15.7222 16.2578C15.7424 17.3693 14.833 18.2786 13.7013 18.2786Z" fill="#AE2626"/>
<path d="M13.7018 15.1055C13.0753 15.1055 12.5498 15.6107 12.5498 16.2574C12.5498 16.9042 13.055 17.4094 13.7018 17.4094C14.3282 17.4094 14.8537 16.9042 14.8537 16.2574C14.8536 15.6107 14.3484 15.1055 13.7018 15.1055Z" fill="#AE2626"/>
</svg>
