<svg width="18" height="21" viewBox="0 0 18 21" fill="none" xmlns="http://www.w3.org/2000/svg">
<path d="M11.1167 13.5346L11.1975 13.4134C11.4804 12.9688 11.925 12.6657 12.4504 12.5848C11.925 11.3722 10.9146 10.4023 9.68187 9.9375C8.8331 10.7661 7.68117 11.2915 6.42827 11.2915C5.17537 11.2915 4.04372 10.7863 3.19481 9.9375C1.31548 10.665 0.00195312 12.4636 0.00195312 14.5855V16.3234C0.00195312 16.6063 0.244414 16.8488 0.527342 16.8488H8.48955V15.4544C8.48955 14.4035 9.35846 13.5346 10.4093 13.5346L11.1167 13.5346Z" fill="#AE2626"/>
<path d="M2.64944 6.17951C2.64944 8.42267 4.34693 10.2617 6.42846 10.2617C8.50999 10.2617 10.2075 8.42264 10.2075 6.17951C10.2075 5.95721 10.2075 5.75506 10.1873 5.53276C10.7936 3.75436 10.4904 0.521013 9.33856 1.00602C8.32813 1.45061 2.83137 0.0360408 3.15471 2.36C1.86135 2.40046 2.52828 4.94671 2.66967 5.51252C2.66967 5.73496 2.64951 5.95725 2.64951 6.17955L2.64944 6.17951ZM3.80126 6.30074C3.94279 6.30074 4.06402 6.19967 4.04372 6.05828C3.96295 5.45199 3.86188 3.9162 4.38725 4.05759C5.05414 4.23943 5.78169 4.42127 6.42829 4.42127C7.07504 4.42127 7.80241 4.21913 8.46933 4.05759C8.99472 3.91606 8.89379 5.45202 8.81286 6.05828C8.7927 6.19981 8.91393 6.32104 9.05532 6.30074L9.27762 6.28058C9.23717 7.97808 7.96413 9.33206 6.42817 9.33206C4.89234 9.33206 3.63933 7.97808 3.57871 6.28058L3.80126 6.30074Z" fill="#AE2626"/>
<path d="M17.0175 14.5675H16.0272C15.8454 14.5675 15.6837 14.4867 15.6028 14.325L15.3805 13.9613C15.239 13.7189 14.9764 13.5977 14.6934 13.5977H12.7533C12.4704 13.5977 12.2279 13.7392 12.0663 13.9817L11.844 14.3453C11.7429 14.4869 11.5812 14.5878 11.4195 14.5878H10.4293C9.94421 14.5878 9.54004 14.9919 9.54004 15.477V19.2964C9.54004 19.7815 9.94418 20.1857 10.4293 20.1857H17.0173C17.5023 20.1857 17.9065 19.7815 17.9065 19.2964L17.9066 15.4568C17.9066 14.9718 17.5025 14.5676 17.0176 14.5676L17.0175 14.5675ZM13.7033 19.2357C12.5918 19.2357 11.6824 18.3263 11.6824 17.2148C11.6824 16.1033 12.5918 15.1939 13.7033 15.1939C14.8148 15.1939 15.7242 16.1033 15.7242 17.2148C15.7443 18.3263 14.8349 19.2357 13.7033 19.2357Z" fill="#AE2626"/>
<path d="M13.7037 16.0625C13.0773 16.0625 12.5518 16.5677 12.5518 17.2145C12.5518 17.8612 13.057 18.3664 13.7037 18.3664C14.3302 18.3664 14.8557 17.8612 14.8557 17.2145C14.8555 16.5677 14.3503 16.0625 13.7037 16.0625Z" fill="#AE2626"/>
<rect x="15.7825" y="0.297189" width="1.89369" height="24.7765" rx="0.946844" transform="rotate(38.6813 15.7825 0.297189)" fill="#AE2626" stroke="white"/>
</svg>
