<svg width="23" height="13" viewBox="0 0 23 13" fill="none" xmlns="http://www.w3.org/2000/svg">
<path d="M15.9043 3.706V8.25449L22.1449 11.5829V0.789062L15.9043 3.706Z" fill="#AE2626"/>
<path d="M12.3706 0.000158094H1.77167C1.30175 0.000158094 0.851171 0.186918 0.518873 0.519031C0.186602 0.851302 0 1.30191 0 1.77182V10.6165C0 11.0864 0.186606 11.537 0.518873 11.8693C0.851144 12.2014 1.30175 12.3882 1.77167 12.3882H12.3706C12.8405 12.3882 13.2911 12.2014 13.6234 11.8693C13.9555 11.537 14.1422 11.0864 14.1422 10.6165V1.75838C14.1387 1.2908 13.9505 0.843579 13.6186 0.514246C13.2868 0.184909 12.8382 0 12.3706 0V0.000158094Z" fill="#AE2626"/>
</svg>
