<svg width="20" height="23" viewBox="0 0 20 23" fill="none" xmlns="http://www.w3.org/2000/svg">
<path d="M14.3633 9.26459V13.8131L19.9994 17.1415V6.34766L14.3633 9.26459Z" fill="#AE2626"/>
<path d="M11.1723 5.55875H1.60005C1.17565 5.55875 0.768722 5.74551 0.468612 6.07762C0.168527 6.4099 0 6.8605 0 7.33042V16.1751C0 16.645 0.16853 17.0956 0.468612 17.4279C0.768697 17.76 1.17565 17.9468 1.60005 17.9468H11.1723C11.5967 17.9468 12.0036 17.76 12.3037 17.4279C12.6037 17.0956 12.7723 16.645 12.7723 16.1751V7.31697C12.7691 6.84939 12.5992 6.40217 12.2994 6.07284C11.9997 5.7435 11.5946 5.55859 11.1723 5.55859V5.55875Z" fill="#AE2626"/>
<rect x="-0.0811823" y="-0.736857" width="1.9637" height="25.1608" rx="0.98185" transform="matrix(0.748302 0.663358 -0.585938 0.810356 16.6953 0.914112)" fill="#AE2626" stroke="white"/>
</svg>
